<svg width="119" height="100" viewBox="0 0 119 100" fill="none" xmlns="http://www.w3.org/2000/svg">
<g clip-path="url(#clip0_10_478)">
<path d="M83.3624 28.8859H64.2503L55.3688 17.6892H35.4135C15.908 17.6892 0 33.6121 0 53.1923C0 72.7724 15.908 88.6954 35.4698 88.6954H54.5256L63.4071 99.892H83.4186C102.98 99.892 118.888 83.9691 118.888 64.389C118.888 44.8088 102.98 28.8859 83.4186 28.8859H83.3624ZM35.4698 35.4126H54.0759L62.9574 46.6093H83.4186C93.1995 46.6093 101.182 54.5989 101.182 64.389C101.182 74.179 93.1995 82.1686 83.4186 82.1686H64.7562L55.8747 70.972H35.4698C25.6889 70.972 17.7068 62.9824 17.7068 53.1923C17.7068 43.4022 25.6889 35.4126 35.4698 35.4126Z" fill="#47d7ac"/>
</g>
<defs>
<clipPath id="clip0_10_478">
<rect width="118.888" height="100" fill="white"/>
</clipPath>
</defs>
</svg>
